<?xml version="1.0" encoding="utf-8"?>
<!-- Generator: Adobe Illustrator 19.0.0, SVG Export Plug-In . SVG Version: 6.00 Build 0)  -->
<svg version="1.1" id="Capa_1" xmlns="http://www.w3.org/2000/svg" xmlns:xlink="http://www.w3.org/1999/xlink" x="0px" y="0px"
	 viewBox="0 0 325.5 328.5" style="enable-background:new 0 0 325.5 328.5;" xml:space="preserve">
<style type="text/css">
	.st0{fill:#8DA0AA;}
	.st1{fill:#5B3029;}
	.st2{fill:#404A6E;}
	.st3{fill:#212B49;}
	.st4{fill:#2D3554;}
	.st5{fill:#222B49;}
	.st6{fill:#E9C299;}
	.st7{fill:#E0E0DF;}
	.st8{fill:#D4AC85;}
	.st9{fill:#E9C29A;}
	.st10{fill:#46211B;}
	.st11{fill:#DFDFDF;}
	.st12{fill:#E7BC91;}
	.st13{fill:#D4AD85;}
	.st14{fill:#374062;}
	.st15{fill:#FFFFFF;}
	.st16{fill:#D3A77A;}
	.st17{fill:#48241D;}
	.st18{fill:#49241D;}
	.st19{fill:#48231D;}
	.st20{fill:#DEB58C;}
	.st21{fill:#9C735A;}
</style>
<g id="XMLID_1_">
	<path id="XMLID_87_" class="st0" d="M150.4,17.4c18.9-2.7,37.4-0.3,55.6,4.7c27.4,7.6,50.9,21.9,70.2,42.7
		c21.6,23.3,34.7,50.7,39.3,82.3c4.7,32.3-0.6,62.9-15.5,91.7c-12.2,23.8-29.7,43.1-52.3,57.6c-3.3-4-3.8-9.1-5.3-13.7
		c-3-9.5-6-19-9.1-28.5c-2.3-7.1-5.3-9.3-12.9-9.4c-10.8-0.1-21.6-0.2-32.4,0.1c-4.3-1.3-5.5-5.3-7.6-8.7c-0.4-1.6-0.3-3.2-0.3-4.8
		c0-1.1,0.1-2.1,0.5-3.1c1.5-2.7,4.5-2.6,7-3.3c17.1-4.7,31.4-13.4,41.6-28.2c5.6-8.2,8.6-17.3,7.9-27.3c-0.3-5.1,1.1-8.2,6.3-10.4
		c10.5-4.4,18.7-19.5,17.7-30.7c-0.6-6.9-5-10.9-12.6-11.7c-2.4-0.3-5,0.4-7.2-1.2c-1.2-1.9-0.4-3.9-0.1-5.8
		c1.8-15.4,1.9-30.8-1.4-46.1c-1.5-6.6-1.7-6.8-8.3-7.9c-14-2.5-26.1-8.9-36.3-18.5c-5.6-5.3-11.4-10.2-17.7-14.6
		c-2.4-1.7-3.5-1.4-3.6,1.8c-0.1,2.5,1.1,6-1.9,7.1c-2.6,0.9-4.1-2.3-6-3.8c-3.6-2.7-7.4-5-11.5-7C152.7,19.9,150.5,19.8,150.4,17.4
		z"/>
	<path id="XMLID_86_" class="st0" d="M99.4,306.2C56.9,285,28.9,251.8,17.2,205.7c-11.6-45.9-2.5-88.3,24.5-126.9
		c5.2-7.5,11.7-14,17.9-20.7c3.9,2.4,4.9,6.9,7.1,10.5c4.6,7.8,9.6,15.2,16.6,21c1.4,1.2,2.5,2.7,3,4.5c0.7,15.3,4,30,9.3,44.3
		c1.6,4.2,0,8.2-1.2,12.2c-4.4,14.9-4.8,29.7,3.3,43.5c7,11.9,17.4,20.5,30,26.2c4.9,2.2,9.9,3.8,15.1,5.1c1.7,0.5,3.6,0.6,5,2.1
		c1.3,2.7,1,5.4,0.4,8.2c-2.2,4.1-5.7,6.8-9.8,8.7c-6.8,1.2-13.8-0.3-20.6,1c-6.5,1.2-9.5,5.4-10.4,11.6
		c-1.9,13.4-3.6,26.9-5.7,40.3C101.3,300.3,101.5,303.6,99.4,306.2z"/>
	<path id="XMLID_85_" class="st1" d="M85.4,93.3c-11.6-9.5-19.1-22.1-25.7-35.2c-2.6-6.6-5.1-13.3-7.9-19.9
		c-1.4-3.2-0.9-4.8,2.6-6.3c13.5-6,27.4-9.1,47.4-9.6c-0.7-2.5-1.5-4.9-2.2-7.4c-0.9-3.5,0.1-5.1,4.2-5c15.9,0.3,31.4,2.8,46.6,7.5
		c7.5,3.7,15.2,7.1,21.8,15c0-4.8-0.1-8.1,0-11.3c0.1-2.3,0.9-3,3.1-1.5c6,4.1,12.2,8.1,17.3,13.4c11.5,12.1,25.4,19.6,42,21.7
		c3.4,0.4,4.6,1.7,5.5,4.9c4.9,18.5,4.6,37.1,1.6,55.8c0.4,0.7,0.6,1.4,0.5,2.1c-0.4,2.2-1.1,4.3-1.5,6.5c-1.1,4.8-2.5,9.4-4.3,14
		c-1.3,3.4-2.9,6.7-4.7,9.9c-0.6,1.1-1.2,2.7-2.8,2.4c-1.5-0.4-1.6-2.1-1.6-3.3c0-7.5-0.5-15-1.1-22.4c-0.9-11.2-2.7-22.1-6.9-32.6
		c-1.1-2.8-2.5-5.5-4.2-7.9c-3.2-4.6-4.5-5-9.4-2.2c-16.5,9.7-34,17-52.6,21.1c-17.5,3.9-35,4.3-52.3-1.2
		C95.4,99.1,89.8,97.3,85.4,93.3z"/>
	<path id="XMLID_84_" class="st2" d="M187.1,244.1c1-1.3,2.4-0.9,3.7-0.9c10,0,19.9-0.1,29.9,0c8.3,0.1,11.6,2.7,14.1,10.5
		c4,12.8,8.1,25.5,12.1,38.3c0.4,1.4,0.6,2.9,0.9,4.3c-9.9,6.4-20.2,11.8-31.3,15.7c-1-0.9-1.7-2.1-2-3.4
		c-3.2-11.6-7.9-22.8-10.5-34.5c-0.3-1-0.6-2-0.5-3c-0.1,1.6,0.5,3.1,0.9,4.6c2.4,11,3.3,22.2,4.8,33.3c0.2,1.8,0.7,3.6-0.6,5.2
		c-16.7,5.5-33.8,7.4-51.3,6.2c0.4-6.9,4.8-11.3,9.5-15.7c5.2-4.9,10-10.1,15.2-15.1c2.7-2.6,3.8-5.3,2.5-8.9
		c-0.7-1.9-1-3.8-1.5-5.8c-1.9-7.6-1.9-7.6,5-11.8c8.1-4.8,8.1-4.8,2.8-12.4c-0.9-1.4-1.9-2.7-2.9-4
		C187.2,246,186.7,245.2,187.1,244.1z"/>
	<path id="XMLID_83_" class="st2" d="M117.3,244.2c7.3-2.4,14.7-0.6,22.1-0.9c2,0.8,2.7,2.3,2.2,4.3c-1.7,2.5-3.6,4.7-5.4,7.2
		c-1.9,2.7-1.8,5,1,6.8c6.2,3.7,7.4,8.9,4.8,15.3c-1.9,4.8-0.8,8.9,2,13.1c4.2,6.2,7.7,12.8,11.6,19.1c2.3,3.6,2.9,7.3,0.8,11.2
		c-14.3,0.1-28-2.6-41.2-7.9c0.9-8.1,0.5-16.2,0-24.3c-0.6-11.4-0.9-22.8-1.4-34.2C113.8,250.2,115.1,247.1,117.3,244.2z"/>
	<path id="XMLID_82_" class="st3" d="M156.5,320.3c0.4-4.9-0.5-9.2-3.6-13.5c-4.5-6.3-8-13.4-12.2-19.9c-2.3-3.5-1-6.9,0.1-10
		c2.3-6.3,1.9-11.1-4.7-14.5c-3.5-1.8-4.4-4.6-1.3-7.9c2.2-2.3,3.1-5.9,6.5-7.2c3.4,1.3,4,4.8,5.8,7.3c4.2,14.9,7.2,30,11.3,45.6
		c8.5-17.3,15.6-34.5,24-51.1c1.6-1.6,3.1-3.5,5.8-2.8c3.3,3.1,5.3,7.1,8.1,10.6c1.4,1.8,0.3,2.6-1.1,3.5c-3.6,2.1-7.1,4.3-10.7,6.3
		c-1.7,1-2.6,2-1.6,4c0.1,0.3,0.2,0.7,0.3,0.9c5,10.8,2.2,19.1-7.4,25.9c-4,2.9-7.2,6.9-10.7,10.5c-3,3-6.8,5.5-6,10.7
		c0.2,1.2-1.1,1.5-2.1,1.7c0,0-0.4,0-0.4,0L156.5,320.3z"/>
	<path id="XMLID_81_" class="st4" d="M117.3,244.2c-1.9,5.8-2.3,11.7-1.8,17.7c1.2,15.2,1.8,30.4,1.9,45.6c0,1.8,0.9,4.2-2.1,4.8
		c-5.6-1.2-10.7-3.9-15.9-6.2c1.8-13.8,3.6-27.6,5.4-41.3c0.5-3.6,0.9-7.2,1.7-10.8C107.9,247.8,110.9,245.2,117.3,244.2z"/>
	<path id="XMLID_80_" class="st5" d="M208.4,314.3c-1.7-13.3-3.4-26.6-5.1-40c-0.3-1,0.1-1.2,1-1c3.6,11.2,7.2,22.3,10.7,33.5
		c0.5,1.7,0.8,3.5,1.2,5.3C213.7,312.8,211.3,314.3,208.4,314.3z"/>
	<path id="XMLID_79_" class="st6" d="M100.6,100.4c31.1,9.3,60.1,1.4,88.3-11.5c6.5-3,12.7-6.6,18.8-10.2c2.3-1.3,3.7-1.2,5.4,0.7
		c7.5,8.3,10.1,18.5,12.1,29c2.6,13.6,3.2,27.4,2.9,42c3.9-4.1,4.5-9.2,7.1-13.2c2.4-2.2,5.1-3.2,7.1-0.1c1.9,3-0.7,4.8-2.9,6.3
		c-3.8,2.7-4.4,4.7-2.5,8.1c1.5,2.7,4.4,3.1,8.2,1c1.5-0.8,2.8-1.8,4-2.8c1.5-1.2,2.7-2.7,3.6-4.4c2.2-3,3.4-6.4,4.4-9.9
		c2.2-8.2-1.9-14-10.3-14.8c-1.3-0.1-2.6,0-3.9-0.4c-1.6-0.4-2.8-1.2-1.9-3.2c0.1-0.6,0.2-1.2,0.3-1.9c1.7,0,3.3,0,5,0.1
		c11.4,0.3,17.6,6.9,15.6,18c-2.3,12.8-8.2,23.6-21.5,28.3c-2,0.7-2.6,1.8-2.3,3.7c3.8,29.8-22.8,54.2-51.1,61c-2,0.5-4.3,0.4-6,1.9
		c-10,3.7-20.1,2.8-30.3,1.3c-1.6-0.2-2.7-1.1-3.7-2.3c-26.2-3.9-51.7-22.8-56.3-48.1c-1.8-10.2-0.4-20.1,2.5-30
		c0.9-3.1,2.9-6.1,1.3-9.6c1-11.8,3.2-23.5,4.3-35.3C99.1,102.9,99.3,101.4,100.6,100.4z"/>
	<path id="XMLID_78_" class="st7" d="M188.4,246.3c-1.7,1-3.3,2-5,3c-2.8,2.7-6,4.7-9.6,6.2c-2.8,1.2-4.9,0.6-6.2-2.2
		c-1.5-3.3-4.1-6.1-3.8-10.1c5.1-4.3,10.9-6.7,17.5-7.1c1.9,2.6,3.9,5.3,5.8,7.9C187.5,244.8,187.9,245.5,188.4,246.3z"/>
	<path id="XMLID_77_" class="st8" d="M147.2,227.4c8.8,2,17.6,2.6,26.6,1.3c2.4-0.4,5-0.3,7.4-0.4c0,1-0.1,2-0.1,3
		c-0.6,1.6-1.9,2.3-3.4,2.7c-9.5,2.4-19,4.6-28.9,3.3c-0.6-0.2-1-0.5-1.4-1C147.4,233.3,147.3,230.3,147.2,227.4z"/>
	<path id="XMLID_76_" class="st9" d="M148.3,236.4c11.2,0.1,22.3-1,32.9-5c0,1.6,0.1,3.2,0.1,4.8c-5.6,2.4-11.3,4.7-16.9,7.1
		c-3.1,2.3-6.6,1.4-9.9,1C151,242.7,148.6,240.3,148.3,236.4z"/>
	<path id="XMLID_75_" class="st10" d="M100.6,100.4c-0.5,12.3-2.7,24.3-4.3,36.4c-0.2,1.2-0.5,2.2-1.6,2.9
		c-5.5-15-9.8-30.2-9.4-46.4C90.5,95.7,95.5,98,100.6,100.4z"/>
	<path id="XMLID_74_" class="st11" d="M148.3,236.4c1.7,2.3,3.5,4.5,5.2,6.8c-0.5,5-4.3,7.9-7.2,11.3c-1.6-2.4-3.3-4.8-4.9-7.2
		c-0.7-1.3-1.3-2.6-2-4c2.7-2.3,5.4-4.7,8.1-7C147.7,236.3,148,236.3,148.3,236.4z"/>
	<path id="XMLID_73_" class="st12" d="M250.4,150.3c-1.2,2.1-3.5,3-5.4,4.1c-2.4,1.4-5.7,1.8-7.5,0.3c-2.3-1.9-2.9-5.4-3-8.6
		c0-1.9,1.7-2.2,3-2.9c2.1-1.3,5.8-2,4.4-5.4c-1.3-3.3-4.3-0.7-6.6-0.6c1.4-4.7,2.9-9.3,4.3-14c3.2-4,7.2-2.5,10.9-1.2
		c4.8,1.6,6.9,5.5,7.2,10.4c0.2,4.4-1.1,8.5-3.3,12.3C252.8,146.4,251.9,148.5,250.4,150.3z"/>
	<path id="XMLID_72_" class="st13" d="M253.4,145.3c1.6-3.3,2.8-6.6,3.1-10.3c0.8-10.4-7.7-15.1-16.9-11.7c0.6-2.1,1.1-4.1,1.7-6.2
		c0.3,2.3,2,2.1,3.7,2.2c12.7,0.6,17,7,12.9,19c-1,2.9-1.6,6.1-4.5,8c-0.3-0.2-0.4-0.5-0.3-0.7C253.2,145.4,253.3,145.3,253.4,145.3
		z"/>
	<path id="XMLID_71_" class="st14" d="M204.4,273.3c-0.3,0.3-0.7,0.7-1,1c-1.3-1.2-1-2.6-0.7-4.1
		C204.1,270.8,204.2,272.1,204.4,273.3z"/>
	<path id="XMLID_70_" class="st15" d="M146.3,254.4c1.3-4.5,5.1-7.3,7.2-11.3c3.6,0,7.2,0.1,10.8,0.1c0.7,1.7,1.3,3.4,2.1,5
		c4.1,8.3,4.1,8.3,12,3.3c1.5-1,3-2.1,4.9-2.3c-8.1,17.7-16.2,35.4-24.4,53.1c-0.1,0.2-0.5,0.3-1.3,0.7
		C153.9,286.8,150.1,270.6,146.3,254.4z"/>
	<path id="XMLID_69_" class="st15" d="M212.3,176c-9.3,21.2-25,32.3-46.8,35.2c-22.4,3-45.9-6.2-55.1-21.7
		C144.8,189.2,178.5,186.9,212.3,176z"/>
	<path id="XMLID_68_" class="st16" d="M122.2,164c11.3,0.6,17.6-6.7,23.2-15.1c2.1,5.7-1.5,15.5-7.8,19.1c-3.5,2-2.1,2.9-0.3,4.8
		c2.3,2.6,5.9,3.3,8.7,5.8C136.3,181.8,126.2,174.8,122.2,164z"/>
	<path id="XMLID_67_" class="st17" d="M164.2,147.2c0.8-8.7,4.5-15.7,12.4-19.8c11.8-6.1,25.8,1.9,28.7,16.4
		c0.5,2.6,0.6,5.3,0.9,8.1c-1.7-0.9-1.5-2.5-2-3.8c-1.2-3.6-2.8-7.1-5.2-10.2c-7.8-10.4-20.4-10.3-28.2,0.1
		c-2.7,3.6-4.7,7.6-5.6,12.1C162.9,149.9,164.2,148.3,164.2,147.2z"/>
	<path id="XMLID_66_" class="st17" d="M168.4,107.6c13.1-9.2,31.9-5.8,39.3,6.9C194.8,110.5,182,109.9,168.4,107.6z"/>
	<path id="XMLID_65_" class="st18" d="M104.5,151.6c-0.4-9.8,2-16.9,9.5-21.3c5.5-3.2,11.2-3,16.4,0.7c6.4,4.4,8.5,10.9,8.1,18.5
		c-3.4-7.8-6.8-16.3-16.9-16.2C111.1,133.2,108.1,142.2,104.5,151.6z"/>
	<path id="XMLID_64_" class="st19" d="M137.1,111.1c-11.3,1.8-22.3,3.6-33.4,5.4C108.7,105.1,127.9,101.9,137.1,111.1z"/>
	<path id="XMLID_63_" class="st20" d="M253.4,145.3c0,0.3,0,0.7,0,1c-0.1,2-1.4,3.1-3,4C250.6,148.2,252.1,146.8,253.4,145.3z"/>
	<path id="XMLID_62_" class="st21" d="M164.2,147.2c0.5,1-0.2,2.3,1.1,3c0.1,0.7,0.2,1.4-0.6,1.7c-0.8,0.3-1.2-0.3-1.2-1
		C163.4,149.6,163.2,148.3,164.2,147.2z"/>
</g>
<g id="XMLID_54_">
</g>
<g id="XMLID_55_">
</g>
<g id="XMLID_56_">
</g>
<g id="XMLID_57_">
</g>
<g id="XMLID_58_">
</g>
<g id="XMLID_59_">
</g>
</svg>
